<?xml version="1.0" standalone="no"?>
<!DOCTYPE svg PUBLIC "-//W3C//DTD SVG 1.1//EN" "http://www.w3.org/Graphics/SVG/1.1/DTD/svg11.dtd" >
<svg>
<metadata>
Created by FontForge 20090914 at Fri Feb 24 03:29:49 2012
 By root
Copyright (c) LeFly, 2004. All rights reserved.
</metadata>
<defs>
<font id="AngiesNewHouse" horiz-adv-x="400" >
  <font-face 
    font-family="Angie's New House"
    font-weight="400"
    font-stretch="normal"
    units-per-em="1000"
    panose-1="0 0 0 0 0 0 0 0 0 0"
    ascent="800"
    descent="-200"
    x-height="650"
    cap-height="850"
    bbox="-200 -200 950 1025"
    underline-thickness="50"
    underline-position="-50"
    unicode-range="U+0020-U+FB02"
  />
<missing-glyph 
d="M0 650h350v-650h-350v650z" />
    <glyph glyph-name=".notdef" 
d="M0 650h350v-650h-350v650z" />
    <glyph glyph-name="b" unicode="b" 
d="M0 0v850h150v-200h200v-650h-350zM200 150v350h-50v-350h50z" />
    <glyph glyph-name="c" unicode="c" 
d="M200 150v150h150v-300h-350v650h350v-300h-150v150h-50v-350h50z" />
    <glyph glyph-name="d" unicode="d" 
d="M0 0v650h200v200h150v-850h-350zM200 150v350h-50v-350h50z" />
    <glyph glyph-name="e" unicode="e" 
d="M350 650v-400h-200v-100h50v50h150v-200h-350v650h350zM200 400v101l-50 -1v-100h50z" />
    <glyph glyph-name="f" unicode="f" horiz-adv-x="300" 
d="M0 650h50v200h200v-150h-50v-50h50v-150h-50v-500h-150v500h-50v150z" />
    <glyph glyph-name="g" unicode="g" 
d="M0 -50h200v50h-200v650h350v-850h-350v150zM150 500v-350h50v350h-50z" />
    <glyph glyph-name="h" unicode="h" 
d="M200 500h-50v-500h-150v850h150v-200h200v-650h-150v500z" />
    <glyph glyph-name="i" unicode="i" horiz-adv-x="200" 
d="M0 650h150v-650h-150v650zM0 850h150v-150h-150v150z" />
    <glyph glyph-name="j" unicode="j" horiz-adv-x="200" 
d="M-200 -50h200v700h150v-850h-350v150zM0 850h150v-150h-150v150z" />
    <glyph glyph-name="k" unicode="k" 
d="M350 300v-300h-150v250h-50v-250h-150v850h150v-450h50v250h150v-300h-100v-50h100z" />
    <glyph glyph-name="l" unicode="l" horiz-adv-x="200" 
d="M0 900h150v-900h-150v900z" />
    <glyph glyph-name="m" unicode="m" horiz-adv-x="600" 
d="M200 500h-50v-500h-150v650h550v-650h-150v500h-50v-500h-150v500z" />
    <glyph glyph-name="n" unicode="n" 
d="M200 500h-50v-500h-150v650h350v-650h-150v500z" />
    <glyph glyph-name="o" unicode="o" 
d="M0 650h350v-650h-350v650zM150 150h50v350h-50v-350z" />
    <glyph glyph-name="p" unicode="p" 
d="M350 650v-650h-200v-200h-150v850h350zM150 500v-350h50v350h-50z" />
    <glyph glyph-name="q" unicode="q" 
d="M350 650v-850h-150v200h-200v650h350zM150 500v-350h50v350h-50z" />
    <glyph glyph-name="r" unicode="r" 
d="M200 500h-50v-500h-150v650h350v-300h-150v150z" />
    <glyph glyph-name="s" unicode="s" 
d="M200 500h-50v-100h200v-400h-350v200h150v-50h50v100h-200v400h350v-200h-150v50z" />
    <glyph glyph-name="t" unicode="t" horiz-adv-x="300" 
d="M0 650h50v200h150v-200h50v-150h-50v-350h50v-150h-200v500h-50v150z" />
    <glyph glyph-name="u" unicode="u" 
d="M0 650h150v-500h50v500h150v-650h-350v650z" />
    <glyph glyph-name="v" unicode="v" 
d="M0 650h150v-500h50v500h150v-500h-50v-150h-250v150h-50v500z" />
    <glyph glyph-name="w" unicode="w" horiz-adv-x="600" 
d="M0 650h150v-500h50v500h150v-500h50v500h150v-650h-550v650z" />
    <glyph glyph-name="x" unicode="x" 
d="M200 400v250h150v-300h-100v-50h100v-300h-150v250h-50v-250h-150v300h100v50h-100v300h150v-250h50z" />
    <glyph glyph-name="y" unicode="y" 
d="M0 650h150v-500h50v500h150v-850h-350v150h200v50h-200v650z" />
    <glyph glyph-name="z" unicode="z" 
d="M0 650h350v-400h-200v-100h50v50h150v-200h-350v400h200v100h-50v-50h-150v200z" />
    <glyph glyph-name="space" unicode=" " horiz-adv-x="250" 
 />
    <glyph glyph-name="space" unicode="&#xa0;" horiz-adv-x="250" 
 />
    <glyph glyph-name="a" unicode="a" 
d="M0 0v400h200v100h-50v-50h-150v200h350v-650h-350zM150 250v-101l50 1v100h-50z" />
    <glyph glyph-name="A" unicode="A" 
d="M200 250h-50v-250h-150v850h350v-850h-150v250zM150 400h50v300h-50v-300z" />
    <glyph glyph-name="B" unicode="B" 
d="M0 850h350v-850h-350v850zM150 500h50v200h-50v-200zM150 150h50v200h-50v-200z" />
    <glyph glyph-name="C" unicode="C" 
d="M200 150v250h150v-400h-350v850h350v-400h-150v250h-50v-550h50z" />
    <glyph glyph-name="D" unicode="D" 
d="M0 850h350v-850h-350v850zM200 150v550h-50v-550h50z" />
    <glyph glyph-name="E" unicode="E" 
d="M200 700h-50v-200h200v-150h-200v-200h50v150h150v-300h-350v850h350v-300h-150v150z" />
    <glyph glyph-name="F" unicode="F" 
d="M200 700h-50v-200h200v-150h-200v-350h-150v850h350v-300h-150v150z" />
    <glyph glyph-name="G" unicode="G" 
d="M0 0v850h350v-150h-200v-550h50v500h150v-650h-350z" />
    <glyph glyph-name="H" unicode="H" 
d="M0 850h150v-350h50v350h150v-850h-150v350h-50v-350h-150v850z" />
    <glyph glyph-name="I" unicode="I" horiz-adv-x="200" 
d="M0 850h150v-850h-150v850z" />
    <glyph glyph-name="J" unicode="J" 
d="M0 350h150v-200h50v700h150v-850h-350v350z" />
    <glyph glyph-name="K" unicode="K" 
d="M250 450v-50h100v-400h-150v350h-50v-350h-150v850h150v-350h50v350h150v-400h-100z" />
    <glyph glyph-name="L" unicode="L" 
d="M0 850h150v-700h50v250h150v-400h-350v850z" />
    <glyph glyph-name="M" unicode="M" horiz-adv-x="600" 
d="M200 700h-50v-700h-150v850h550v-850h-150v700h-50v-700h-150v700z" />
    <glyph glyph-name="N" unicode="N" 
d="M200 700h-50v-700h-150v850h350v-850h-150v700z" />
    <glyph glyph-name="O" unicode="O" 
d="M0 850h350v-850h-350v850zM200 150v550h-50v-550h50z" />
    <glyph glyph-name="P" unicode="P" 
d="M0 850h350v-500h-200v-350h-150v850zM150 500h50v200h-50v-200z" />
    <glyph glyph-name="Q" unicode="Q" horiz-adv-x="450" 
d="M0 850h350v-700h50v-150h-400v850zM200 150v550h-50v-550h50z" />
    <glyph glyph-name="R" unicode="R" 
d="M250 450v-50h100v-400h-150v350h-50v-350h-150v850h350v-400h-100zM200 500v200h-50v-200h50z" />
    <glyph glyph-name="S" unicode="S" 
d="M0 850h350v-300h-150v150h-50v-200h200v-500h-350v300h150v-150h50v200h-200v500z" />
    <glyph glyph-name="T" unicode="T" 
d="M0 850h350v-150h-100v-700h-150v700h-100v150z" />
    <glyph glyph-name="U" unicode="U" 
d="M0 850h150v-700h50v700h150v-850h-350v850z" />
    <glyph glyph-name="V" unicode="V" 
d="M350 250h-50v-250h-250v250h-50v600h150v-700h50v700h150v-600z" />
    <glyph glyph-name="X" unicode="X" 
d="M200 500v350h150v-400h-100v-50h100v-400h-150v350h-50v-350h-150v400h100v50h-100v400h150v-350h50z" />
    <glyph glyph-name="Y" unicode="Y" 
d="M0 850h150v-500h50v500h150v-600h-100v-250h-150v250h-100v600z" />
    <glyph glyph-name="Z" unicode="Z" 
d="M350 350h-200v-200h50v150h150v-300h-350v500h200v200h-50v-150h-150v300h350v-500z" />
    <glyph glyph-name="W" unicode="W" horiz-adv-x="600" 
d="M200 850h150v-700h50v700h150v-850h-550v850h150v-700h50v700z" />
    <glyph glyph-name="zero" unicode="0" 
d="M0 850h350v-850h-350v850zM200 150v550h-50v-550h50z" />
    <glyph glyph-name="one" unicode="1" horiz-adv-x="259" 
d="M0 850h209v-850h-150v700h-59v150z" />
    <glyph glyph-name="two" unicode="2" 
d="M350 250h-200v-100h50v50h150v-200h-350v400h200v300h-50v-250h-150v400h350v-600z" />
    <glyph glyph-name="three" unicode="3" 
d="M150 150h50v200h-200v150h200v200h-50v-150h-150v300h350v-850h-350v300h150v-150z" />
    <glyph glyph-name="five" unicode="5" 
d="M350 0h-350v400h150v-250h50v300h-200v400h350v-200h-150v50h-50v-100h200v-600z" />
    <glyph glyph-name="six" unicode="6" 
d="M200 700h-50v-200h200v-500h-350v850h350v-300h-150v150zM200 150v200h-50v-200h50z" />
    <glyph glyph-name="seven" unicode="7" 
d="M350 0h-150v700h-50v-250h-150v400h350v-850z" />
    <glyph glyph-name="eight" unicode="8" 
d="M0 850h350v-850h-350v850zM150 500h50v200h-50v-200zM150 150h50v200h-50v-200z" />
    <glyph glyph-name="nine" unicode="9" 
d="M150 150h50v200h-200v500h350v-850h-350v300h150v-150zM150 700v-200h50v200h-50z" />
    <glyph glyph-name="four" unicode="4" 
d="M0 850h150v-450h50v450h150v-850h-150v250h-200v600z" />
    <glyph glyph-name="dollar" unicode="$" 
d="M100 0h-100v300h150v-150h50v200h-200v500h100v50h150v-50h100v-300h-150v150h-50v-200h200v-500h-100v-50h-150v50z" />
    <glyph glyph-name="Euro" unicode="&#x20ac;" horiz-adv-x="450" 
d="M0 600h50v250h350v-200h-150v50h-50v-100h150v-150h-150v-50h150v-150h-150v-100h50v50h150v-200h-350v250h-50v150h50v50h-50v150z" />
    <glyph glyph-name="quotesingle" unicode="'" horiz-adv-x="200" 
d="M0 850h150v-250h-100v100h-50v150z" />
    <glyph glyph-name="comma" unicode="," horiz-adv-x="200" 
d="M0 150h150v-250h-150v50h50v50h-50v150z" />
    <glyph glyph-name="period" unicode="." horiz-adv-x="200" 
d="M0 150h150v-150h-150v150z" />
    <glyph glyph-name="hyphen" unicode="-" 
d="M0 400h350v-150h-350v150z" />
    <glyph glyph-name="hyphen" unicode="&#xad;" 
d="M0 400h350v-150h-350v150z" />
    <glyph glyph-name="at" unicode="@" horiz-adv-x="600" 
d="M0 700h550v-600h-400v300h150v50h-150v100h250v-350h50v400h-350v-550h300v-100h-400v750zM250 300v-101l50 1v100h-50z" />
    <glyph glyph-name="quotedbl" unicode="&#x22;" 
d="M0 850h150v-250h-100v100h-50v150zM200 850h150v-250h-100v100h-50v150z" />
    <glyph glyph-name="exclam" unicode="!" horiz-adv-x="200" 
d="M150 200h-150v650h150v-650zM0 150h150v-150h-150v150z" />
    <glyph glyph-name="question" unicode="?" 
d="M0 400h200v300h-50v-250h-150v400h350v-600h-200v-50h-150v200zM0 150h150v-150h-150v150z" />
    <glyph glyph-name="colon" unicode=":" horiz-adv-x="200" 
d="M0 550h150v-150h-150v150zM0 150h150v-150h-150v150z" />
    <glyph glyph-name="semicolon" unicode=";" horiz-adv-x="200" 
d="M0 150h150v-250h-150v50h50v50h-50v150zM0 550h150v-150h-150v150z" />
    <glyph glyph-name="equal" unicode="=" 
d="M0 550h350v-150h-350v150zM0 250h350v-150h-350v150z" />
    <glyph glyph-name="ampersand" unicode="&#x26;" horiz-adv-x="450" 
d="M0 850h350v-300h-150v150h-50v-200h250v-150h-50v-200h50v-150h-50v-50h-150v50h-200v850zM150 150h50v200h-50v-200z" />
    <glyph glyph-name="plus" unicode="+" 
d="M0 400h100v150h150v-150h100v-150h-100v-150h-150v150h-100v150z" />
    <glyph glyph-name="yen" unicode="&#xa5;" horiz-adv-x="500" 
d="M0 600h50v250h150v-500h50v500h150v-250h50v-150h-50v-50h50v-150h-150v-250h-150v250h-150v150h50v50h-50v150z" />
    <glyph glyph-name="aacute" unicode="&#xe1;" 
d="M0 0v400h200v100h-50v-50h-150v200h350v-650h-350zM150 250v-101l50 1v100h-50zM0 700v100l350 50v-100z" />
    <glyph glyph-name="agrave" unicode="&#xe0;" 
d="M0 0v400h200v100h-50v-50h-150v200h350v-650h-350zM150 250v-101l50 1v100h-50zM0 750v100l350 -50v-100z" />
    <glyph glyph-name="acircumflex" unicode="&#xe2;" 
d="M0 0v400h200v100h-50v-50h-150v200h350v-650h-350zM150 250v-101l50 1v100h-50zM200 750h-49l-151 -50v100l154 50h46l150 -50v-100z" />
    <glyph glyph-name="adieresis" unicode="&#xe4;" 
d="M0 400h200v100h-50v-50h-150v200h350v-650h-350v400zM200 800h150v-100h-150v100zM0 700v100h150v-100h-150zM150 149l50 1v100h-50v-101z" />
    <glyph glyph-name="atilde" unicode="&#xe3;" 
d="M0 0v400h200v100h-50v-50h-150v200h350v-650h-350zM150 250v-101l50 1v100h-50zM97 749l-97 -49v100l100 50l150 -49l100 49v-100l-100 -50z" />
    <glyph glyph-name="aring" unicode="&#xe5;" 
d="M0 400h200v100h-50v-50h-150v200h350v-650h-350v400zM100 700v150h150v-150h-150zM150 149l50 1v100h-50v-101zM200 750v50h-50v-50h50z" />
    <glyph glyph-name="ccedilla" unicode="&#xe7;" 
d="M100 -50h50v50h-150v650h350v-300h-150v150h-50v-350h50v150h150v-300h-100v-150h-150v100z" />
    <glyph glyph-name="eacute" unicode="&#xe9;" 
d="M350 650v-400h-200v-100h50v50h150v-200h-350v650h350zM200 400v101l-50 -1v-100h50zM0 700v100l350 50v-100z" />
    <glyph glyph-name="egrave" unicode="&#xe8;" 
d="M350 650v-400h-200v-100h50v50h150v-200h-350v650h350zM200 400v101l-50 -1v-100h50zM0 750v100l350 -50v-100z" />
    <glyph glyph-name="ecircumflex" unicode="&#xea;" 
d="M350 650v-400h-200v-100h50v50h150v-200h-350v650h350zM200 400v101l-50 -1v-100h50zM200 750h-50l-150 -50v100l150 50h50l150 -50v-100z" />
    <glyph glyph-name="edieresis" unicode="&#xeb;" 
d="M350 650v-400h-200v-100h50v50h150v-200h-350v650h350zM200 800h150v-100h-150v100zM0 800h150v-100h-150v100zM200 400v101l-50 -1v-100h50z" />
    <glyph glyph-name="iacute" unicode="&#xed;" horiz-adv-x="200" 
d="M0 650h150v-650h-150v650zM0 800l250 50v-100l-250 -50v100z" />
    <glyph glyph-name="igrave" unicode="&#xec;" horiz-adv-x="200" 
d="M0 650h150v-650h-150v650zM-100 850l250 -50v-100l-250 50v100z" />
    <glyph glyph-name="icircumflex" unicode="&#xee;" horiz-adv-x="200" 
d="M0 650h150v-650h-150v650zM-50 800l100 50h50l100 -50v-100l-100 50h-50l-100 -50v100z" />
    <glyph glyph-name="idieresis" unicode="&#xef;" horiz-adv-x="200" 
d="M0 650h150v-650h-150v650zM100 800h100v-100h-100v100zM-50 800h100v-100h-100v100z" />
    <glyph glyph-name="ntilde" unicode="&#xf1;" 
d="M200 500h-50v-500h-150v650h350v-650h-150v500zM0 700v100l100 50l150 -50l100 50v-100l-100 -50l-150 49z" />
    <glyph glyph-name="oacute" unicode="&#xf3;" 
d="M0 650h350v-650h-350v650zM150 150h50v350h-50v-350zM0 700v100l350 50v-100z" />
    <glyph glyph-name="ograve" unicode="&#xf2;" 
d="M0 650h350v-650h-350v650zM150 150h50v350h-50v-350zM0 750v100l350 -50v-100z" />
    <glyph glyph-name="ocircumflex" unicode="&#xf4;" 
d="M0 650h350v-650h-350v650zM150 150h50v350h-50v-350zM200 750h-50l-150 -50v100l150 50h50l150 -50v-100z" />
    <glyph glyph-name="odieresis" unicode="&#xf6;" 
d="M0 650h350v-650h-350v650zM150 150h50v350h-50v-350zM0 800h150v-100h-150v100zM200 800h150v-100h-150v100z" />
    <glyph glyph-name="otilde" unicode="&#xf5;" 
d="M0 650h350v-650h-350v650zM150 150h50v350h-50v-350zM250 700l-150 50l-100 -50v100l100 50l158 -49l92 49v-100z" />
    <glyph glyph-name="uacute" unicode="&#xfa;" horiz-adv-x="401" 
d="M0 650h150v-500h50v500h150v-650h-350v650zM0 800l350 50l1 -100l-351 -50v100z" />
    <glyph glyph-name="ugrave" unicode="&#xf9;" 
d="M0 650h150v-500h50v500h150v-650h-350v650zM0 850l349 -50l1 -100l-350 50v100z" />
    <glyph glyph-name="ucircumflex" unicode="&#xfb;" 
d="M0 650h150v-500h50v500h150v-650h-350v650zM0 800l150 50h50l149 -50l1 -100l-150 50h-50l-150 -50v100z" />
    <glyph glyph-name="udieresis" unicode="&#xfc;" 
d="M0 650h150v-500h50v500h150v-650h-350v650zM0 800h149l1 -100h-150v100zM200 800h149l1 -100h-150v100z" />
    <glyph glyph-name="dagger" unicode="&#x2020;" horiz-adv-x="500" 
d="M0 650h150v200h150v-200h150v-150h-150v-700h-150v700h-150v150z" />
    <glyph glyph-name="AE" unicode="&#xc6;" horiz-adv-x="600" 
d="M400 700h-50v-200h200v-150h-200v-200h50v150h150v-300h-350v250h-50v-250h-150v850h550v-300h-150v150zM150 400h50v300h-50v-300z" />
    <glyph glyph-name="ae" unicode="&#xe6;" horiz-adv-x="600" 
d="M550 650v-400h-200v-100h50v50h150v-200h-550v400h200v100h-50v-50h-150v200h550zM150 250v-101l50 1v100h-50zM400 400v101l-50 -1v-100h50z" />
    <glyph glyph-name="oslash" unicode="&#xf8;" 
d="M0 650h200v100h150v-750h-200v-100h-150v750zM150 150h50v350h-50v-350z" />
    <glyph glyph-name="exclamdown" unicode="&#xa1;" horiz-adv-x="200" 
d="M150 -200h-150v650h150v-650zM0 650h150v-150h-150v150z" />
    <glyph glyph-name="questiondown" unicode="&#xbf;" 
d="M350 250h-200v-300h50v250h150v-400h-350v600h200v50h150v-200zM350 500h-150v150h150v-150z" />
    <glyph glyph-name="parenleft" unicode="(" horiz-adv-x="250" 
d="M0 850h200v-150h-50v-750h50v-150h-200v1050z" />
    <glyph glyph-name="parenright" unicode=")" horiz-adv-x="250" 
d="M200 -200h-200v150h50v750h-50v150h200v-1050z" />
    <glyph glyph-name="cent" unicode="&#xa2;" 
d="M100 0h-100v650h100v50h150v-50h100v-300h-150v150h-50v-350h50v150h150v-300h-100v-39h-150v39z" />
    <glyph glyph-name="sterling" unicode="&#xa3;" horiz-adv-x="450" 
d="M0 400h50v450h350v-400h-150v250h-50v-300h200v-150h-200v-100h50v50h150v-200h-400v150h50v100h-50v150z" />
    <glyph glyph-name="Oslash" unicode="&#xd8;" 
d="M0 850h200v50h150v-900h-200v-50h-150v900zM200 150v550h-50v-550h50z" />
    <glyph glyph-name="slash" unicode="/" horiz-adv-x="300" 
d="M100 850h150l-100 -850h-150z" />
    <glyph glyph-name="backslash" unicode="\" horiz-adv-x="300" 
d="M0 850h150l100 -850h-150z" />
    <glyph glyph-name="trademark" unicode="&#x2122;" horiz-adv-x="700" 
d="M250 850h400v-350h-100v250h-50v-250h-100v250h-50v-250h-100v350zM0 850h200v-100h-50v-250h-100v250h-50v100z" />
    <glyph glyph-name="uni00B5" unicode="&#xb5;" horiz-adv-x="450" 
d="M0 650h150v-500h50v500h150v-500h50v-150h-250v-200h-150v850z" />
    <glyph glyph-name="pi" unicode="&#x3c0;" horiz-adv-x="500" 
d="M0 650h450v-150h-50v-500h-150v500h-50v-500h-150v500h-50v150z" />
    <glyph glyph-name="section" unicode="&#xa7;" 
d="M200 700h-50v-150h200v-750h-350v250h150v-100h50v150h-200v750h350v-250h-150v100zM200 400h-50v-150h50v150z" />
    <glyph glyph-name="bullet" unicode="&#x2022;" horiz-adv-x="300" 
d="M0 450h250v-250h-250v250z" />
    <glyph glyph-name="Aacute" unicode="&#xc1;" 
d="M0 875v100l350 50v-100zM200 250h-50v-250h-150v850h350v-850h-150v250zM150 400h50v300h-50v-300z" />
    <glyph glyph-name="Eacute" unicode="&#xc9;" 
d="M0 875v100l350 50v-100zM200 700h-50v-200h200v-150h-200v-200h50v150h150v-300h-350v850h350v-300h-150v150z" />
    <glyph glyph-name="Uacute" unicode="&#xda;" 
d="M0 875v100l350 50v-100zM0 850h150v-700h50v700h150v-850h-350v850z" />
    <glyph glyph-name="Iacute" unicode="&#xcd;" horiz-adv-x="200" 
d="M-50 875v100l250 50v-100zM0 850h150v-850h-150v850z" />
    <glyph glyph-name="acute" unicode="&#xb4;" 
d="M0 700v100l350 50v-100z" />
    <glyph glyph-name="Yacute" unicode="&#xdd;" 
d="M0 875v100l350 50v-100zM0 850h150v-500h50v500h150v-600h-100v-250h-150v250h-100v600z" />
    <glyph glyph-name="yacute" unicode="&#xfd;" 
d="M0 700v100l350 50v-100zM0 650h150v-500h50v500h150v-850h-350v150h200v50h-200v650z" />
    <glyph glyph-name="Acircumflex" unicode="&#xc2;" 
d="M200 250h-50v-250h-150v850h350v-850h-150v250zM150 400h50v300h-50v-300zM200 925h-49l-151 -50v100l154 50h46l150 -50v-100z" />
    <glyph glyph-name="Agrave" unicode="&#xc0;" 
d="M200 250h-50v-250h-150v850h350v-850h-150v250zM150 400h50v300h-50v-300zM0 925v100l350 -50v-100z" />
    <glyph glyph-name="Atilde" unicode="&#xc3;" 
d="M200 250h-50v-250h-150v850h350v-850h-150v250zM150 400h50v300h-50v-300zM97 924l-97 -49v100l100 50l150 -49l100 49v-100l-100 -50z" />
    <glyph glyph-name="Adieresis" unicode="&#xc4;" 
d="M200 250h-50v-250h-150v850h350v-850h-150v250zM150 400h50v300h-50v-300zM200 975h150v-100h-150v100zM0 875v100h150v-100h-150z" />
    <glyph glyph-name="Aring" unicode="&#xc5;" 
d="M200 250h-50v-250h-150v850h350v-850h-150v250zM150 400h50v300h-50v-300zM100 875v150h150v-150h-150zM200 925v50h-50v-50h50z" />
    <glyph glyph-name="Ccedilla" unicode="&#xc7;" 
d="M100 -50h50v50h-150v850h350v-400h-150v250h-50v-550h50v250h150v-400h-100v-150h-150v100z" />
    <glyph glyph-name="grave" unicode="`" 
d="M0 750v100l350 -50v-100z" />
    <glyph glyph-name="Ntilde" unicode="&#xd1;" 
d="M200 700h-50v-700h-150v850h350v-850h-150v700zM250 875l-150 50l-100 -50v100l100 50l158 -49l92 49v-100z" />
    <glyph glyph-name="Odieresis" unicode="&#xd6;" 
d="M0 850h350v-850h-350v850zM200 150v550h-50v-550h50zM200 975h150v-100h-150v100zM0 875v100h150v-100h-150z" />
    <glyph glyph-name="Udieresis" unicode="&#xdc;" 
d="M0 850h150v-700h50v700h150v-850h-350v850zM200 975h150v-100h-150v100zM0 875v100h150v-100h-150z" />
    <glyph glyph-name="degree" unicode="&#xb0;" horiz-adv-x="300" 
d="M0 850h250v-250h-250v250zM150 700v50h-50v-50h50z" />
    <glyph glyph-name="paragraph" unicode="&#xb6;" horiz-adv-x="600" 
d="M0 850h550v-150h-50v-900h-150v900h-50v-900h-150v650h-150v400z" />
    <glyph glyph-name="registered" unicode="&#xae;" horiz-adv-x="700" 
d="M0 650h650v-650h-650v650zM550 100v450h-450v-450h450zM350 300h-50v-150h-100v350h250v-150h-50v-50h50v-150h-100v150zM350 350v100h-50v-100h50z" />
    <glyph glyph-name="copyright" unicode="&#xa9;" horiz-adv-x="700" 
d="M0 650h650v-650h-650v650zM550 100v450h-450v-450h450zM200 500h250v-150h-100v100h-50v-250h50v100h100v-150h-250v350z" />
    <glyph glyph-name="dieresis" unicode="&#xa8;" 
d="M0 800h149l1 -100h-150v100zM200 800h149l1 -100h-150v100z" />
    <glyph glyph-name="notequal" unicode="&#x2260;" 
d="M0 550h134l16 100h150l-16 -100h66v-150h-89l-23 -150h112v-150h-135l-15 -100h-150l15 100h-65v150h88l23 150h-111v150z" />
    <glyph glyph-name="infinity" unicode="&#x221e;" horiz-adv-x="800" 
d="M400 150h-50v-150h-350v500h350v-150h50v150h350v-500h-350v150zM550 150h50v200h-50v-200zM150 150h50v200h-50v-200z" />
    <glyph glyph-name="plusminus" unicode="&#xb1;" 
d="M0 400h100v150h150v-150h100v-150h-100v-150h-150v150h-100v150zM0 0h350v-150h-350v150z" />
    <glyph glyph-name="less" unicode="&#x3c;" 
d="M0 400l350 150v-150l-175 -75l175 -75v-150l-350 150v150z" />
    <glyph glyph-name="greater" unicode="&#x3e;" 
d="M350 250l-350 -150v150l175 75l-175 75v150l350 -150v-150z" />
    <glyph glyph-name="bracketleft" unicode="[" 
d="M0 850h350v-150h-200v-750h200v-150h-350v1050z" />
    <glyph glyph-name="bracketright" unicode="]" 
d="M350 -200h-350v150h200v750h-200v150h350v-1050z" />
    <glyph glyph-name="asciicircum" unicode="^" 
d="M200 750h-49l-151 -50v100l154 50h46l150 -50v-100z" />
    <glyph glyph-name="underscore" unicode="_" horiz-adv-x="550" 
d="M0 150h500v-150h-500v150z" />
    <glyph glyph-name="braceleft" unicode="{" horiz-adv-x="300" 
d="M0 400h50v450h200v-150h-50v-750h50v-150h-200v450h-50v150z" />
    <glyph glyph-name="braceright" unicode="}" horiz-adv-x="300" 
d="M200 -200h-200v150h50v750h-50v150h200v-450h50v-150h-50v-450z" />
    <glyph glyph-name="bar" unicode="|" horiz-adv-x="200" 
d="M0 850h150v-1050h-150v1050z" />
    <glyph glyph-name="asciitilde" unicode="~" 
d="M97 749l-97 -49v100l100 50l150 -49l100 49v-100l-100 -50z" />
    <glyph glyph-name="percent" unicode="%" horiz-adv-x="700" 
d="M300 850h150l-100 -850h-150zM400 350h250v-350h-250v350zM0 850h250v-350h-250v350zM150 600v150h-50v-150h50zM550 100v150h-50v-150h50z" />
    <glyph glyph-name="numbersign" unicode="#" horiz-adv-x="500" 
d="M0 600h50v50h150v-50h50v50h150v-50h50v-150h-50v-250h50v-150h-50v-50h-150v50h-50v-50h-150v50h-50v150h50v250h-50v150zM250 200v250h-50v-250h50z" />
    <glyph glyph-name="asterisk" unicode="*" horiz-adv-x="500" 
d="M100 800l50 -29v79h150v-79l50 29l100 -100l-88 -50l88 -50l-100 -100l-50 28v-78h-150v78l-50 -28l-100 100l88 50l-88 50z" />
    <glyph glyph-name="minus" unicode="&#x2212;" horiz-adv-x="550" 
d="M0 400h500v-150h-500v150z" />
    <glyph glyph-name="brokenbar" unicode="&#xa6;" horiz-adv-x="200" 
d="M0 250h150v-450h-150v450zM150 400h-150v450h150v-450z" />
    <glyph glyph-name="lessequal" unicode="&#x2264;" 
d="M0 400l350 150v-150l-175 -75l175 -75v-150l-350 150v150zM0 0h350v-150h-350v150z" />
    <glyph glyph-name="greaterequal" unicode="&#x2265;" 
d="M350 250l-350 -150v150l175 75l-175 75v150l350 -150v-150zM0 0h350v-150h-350v150z" />
    <glyph glyph-name="product" unicode="&#x220f;" horiz-adv-x="600" 
d="M0 850h550v-150h-100v-700h-150v700h-50v-700h-150v700h-100v150z" />
    <glyph glyph-name="summation" unicode="&#x2211;" 
d="M200 550v150h-50v-200h200v-350h-200v-200h50v150h150v-300h-350v500h200v50h-200v500h350v-300h-150z" />
    <glyph glyph-name="integral" unicode="&#x222b;" horiz-adv-x="300" 
d="M0 -50h50v900h200v-150h-50v-900h-200v150z" />
    <glyph glyph-name="ordfeminine" unicode="&#xaa;" horiz-adv-x="300" 
d="M0 850h250v-400h-250v250h150v50h-150v100zM100 550h50v50h-50v-50z" />
    <glyph glyph-name="ordmasculine" unicode="&#xba;" horiz-adv-x="300" 
d="M0 850h250v-400h-250v400zM150 550v200h-50v-200h50z" />
    <glyph glyph-name="Omega" unicode="&#x3a9;" horiz-adv-x="500" 
d="M250 700h-50v-700h-200v150h50v700h350v-700h50v-150h-200v700z" />
    <glyph glyph-name="partialdiff" unicode="&#x2202;" 
d="M0 850l350 -250v-600h-350v500h200l-200 150v200zM200 150v200h-50v-200h50z" />
    <glyph glyph-name="logicalnot" unicode="&#xac;" horiz-adv-x="550" 
d="M0 400h500v-300h-150v150h-350v150z" />
    <glyph glyph-name="radical" unicode="&#x221a;" horiz-adv-x="600" 
d="M50 500h-50v150h200v-500h50v700h350v-150h-200v-700h-350v500z" />
    <glyph glyph-name="uni0192" unicode="&#x192;" horiz-adv-x="300" 
d="M0 400h50v450h200v-150h-50v-300h50v-150h-50v-450h-200v150h50v300h-50v150z" />
    <glyph glyph-name="approxequal" unicode="&#x2248;" horiz-adv-x="450" 
d="M0 100v150l150 50l100 -50l150 50v-150l-150 -50l-100 50zM0 350v150l150 50l100 -50l150 50v-150l-150 -50l-100 50z" />
    <glyph glyph-name="ellipsis" unicode="&#x2026;" horiz-adv-x="600" 
d="M0 150h150v-150h-150v150zM400 150h150v-150h-150v150zM200 150h150v-150h-150v150z" />
    <glyph glyph-name="Otilde" unicode="&#xd5;" 
d="M0 850h350v-850h-350v850zM200 150v550h-50v-550h50zM97 924l-97 -49v100l100 50l150 -49l100 49v-100l-100 -50z" />
    <glyph glyph-name="OE" unicode="&#x152;" horiz-adv-x="600" 
d="M0 850h550v-300h-150v150h-50v-200h200v-150h-200v-200h50v150h150v-300h-550v850zM200 150v550h-50v-550h50z" />
    <glyph glyph-name="oe" unicode="&#x153;" horiz-adv-x="600" 
d="M0 650h550v-400h-200v-100h50v50h150v-200h-550v650zM160 150h40v350h-40v-350zM400 400v101l-50 -1v-100h50z" />
    <glyph glyph-name="endash" unicode="&#x2013;" horiz-adv-x="500" 
d="M0 400h450v-150h-450v150z" />
    <glyph glyph-name="emdash" unicode="&#x2014;" horiz-adv-x="600" 
d="M0 400h550v-150h-550v150z" />
    <glyph glyph-name="quotedblright" unicode="&#x201d;" 
d="M0 850h150v-250h-150v50h50v50h-50v150zM200 850h150v-250h-150v50h50v50h-50v150z" />
    <glyph glyph-name="quoteright" unicode="&#x2019;" horiz-adv-x="200" 
d="M0 850h150v-250h-150v50h50v50h-50v150z" />
    <glyph glyph-name="quotedblleft" unicode="&#x201c;" 
d="M350 600h-150v250h150v-50h-50v-50h50v-150zM150 600h-150v250h150v-50h-50v-50h50v-150z" />
    <glyph glyph-name="quoteleft" unicode="&#x2018;" horiz-adv-x="200" 
d="M150 600h-150v250h150v-50h-50v-50h50v-150z" />
    <glyph glyph-name="quotedblbase" unicode="&#x201e;" 
d="M0 150h150v-250h-150v50h50v50h-50v150zM200 150h150v-250h-150v50h50v50h-50v150z" />
    <glyph glyph-name="quotesinglbase" unicode="&#x201a;" horiz-adv-x="200" 
d="M0 150h150v-250h-150v50h50v50h-50v150z" />
    <glyph glyph-name="perthousand" unicode="&#x2030;" horiz-adv-x="1000" 
d="M300 850h150l-100 -850h-150zM400 350h250v-350h-250v350zM0 850h250v-350h-250v350zM150 600v150h-50v-150h50zM550 100v150h-50v-150h50zM700 350h250v-350h-250v350zM850 100v150h-50v-150h50z" />
    <glyph glyph-name="Ecircumflex" unicode="&#xca;" 
d="M200 700h-50v-200h200v-150h-200v-200h50v150h150v-300h-350v850h350v-300h-150v150zM200 925h-49l-151 -50v100l154 50h46l150 -50v-100z" />
    <glyph glyph-name="Edieresis" unicode="&#xcb;" 
d="M200 700h-50v-200h200v-150h-200v-200h50v150h150v-300h-350v850h350v-300h-150v150zM200 975h150v-100h-150v100zM0 875v100h150v-100h-150z" />
    <glyph glyph-name="Egrave" unicode="&#xc8;" 
d="M200 700h-50v-200h200v-150h-200v-200h50v150h150v-300h-350v850h350v-300h-150v150zM0 925v100l350 -50v-100z" />
    <glyph glyph-name="Icircumflex" unicode="&#xce;" horiz-adv-x="200" 
d="M0 850h150v-850h-150v850zM100 925h-49l-101 -50v100l104 50h46l100 -50v-100z" />
    <glyph glyph-name="Idieresis" unicode="&#xcf;" horiz-adv-x="200" 
d="M0 850h150v-850h-150v850zM100 975h100v-100h-100v100zM-50 875v100h100v-100h-100z" />
    <glyph glyph-name="Igrave" unicode="&#xcc;" horiz-adv-x="200" 
d="M-50 925v100l250 -50v-100zM150 0h-150v850h150v-850z" />
    <glyph glyph-name="Oacute" unicode="&#xd3;" 
d="M0 850h350v-850h-350v850zM200 150v550h-50v-550h50zM0 875v100l350 50v-100z" />
    <glyph glyph-name="Ocircumflex" unicode="&#xd4;" 
d="M0 850h350v-850h-350v850zM200 150v550h-50v-550h50zM200 925h-49l-151 -50v100l154 50h46l150 -50v-100z" />
    <glyph glyph-name="Ograve" unicode="&#xd2;" 
d="M0 850h350v-850h-350v850zM200 150v550h-50v-550h50zM0 925v100l350 -50v-100z" />
    <glyph glyph-name="Ugrave" unicode="&#xd9;" 
d="M0 925v100l350 -50v-100zM350 0h-350v850h150v-700h50v700h150v-850z" />
    <glyph glyph-name="Ucircumflex" unicode="&#xdb;" 
d="M0 850h150v-700h50v700h150v-850h-350v850zM200 925h-49l-151 -50v100l154 50h46l150 -50v-100z" />
    <glyph glyph-name="dotlessi" unicode="&#x131;" horiz-adv-x="200" 
d="M0 650h150v-650h-150v650z" />
    <glyph glyph-name="fi" unicode="&#xfb01;" horiz-adv-x="500" 
d="M0 650h50v200h400v-150h-250v-50h50v-150h-50v-500h-150v500h-50v150zM300 650h150v-650h-150v650z" />
    <glyph glyph-name="fl" unicode="&#xfb02;" horiz-adv-x="500" 
d="M300 700h-100v-50h50v-150h-50v-500h-150v500h-50v150h50v200h400v-850h-150v700z" />
    <glyph glyph-name="daggerdbl" unicode="&#x2021;" horiz-adv-x="500" 
d="M0 150h150v350h-150v150h150v200h150v-200h150v-150h-150v-350h150v-150h-150v-200h-150v200h-150v150z" />
    <glyph glyph-name="periodcentered" unicode="&#xb7;" horiz-adv-x="200" 
d="M0 400h150v-150h-150v150z" />
    <glyph glyph-name="guillemotleft" unicode="&#xab;" horiz-adv-x="450" 
d="M50 50l-50 150v50l50 150h150l-50 -150v-50l50 -150h-150zM250 50l-50 150v50l50 150h150l-50 -150v-50l50 -150h-150z" />
    <glyph glyph-name="guillemotright" unicode="&#xbb;" horiz-adv-x="450" 
d="M200 50l50 150v50l-50 150h150l50 -150v-50l-50 -150h-150zM0 50l50 150v50l-50 150h150l50 -150v-50l-50 -150h-150z" />
    <glyph glyph-name="guilsinglright" unicode="&#x203a;" horiz-adv-x="250" 
d="M0 50l50 150v50l-50 150h150l50 -150v-50l-50 -150h-150z" />
    <glyph glyph-name="guilsinglleft" unicode="&#x2039;" horiz-adv-x="250" 
d="M50 50l-50 150v50l50 150h150l-50 -150v-50l50 -150h-150z" />
    <glyph glyph-name="uni2044" unicode="&#x2044;" horiz-adv-x="500" 
d="M300 850h150l-300 -850h-150z" />
    <glyph glyph-name="onehalf" unicode="&#xbd;" horiz-adv-x="600" 
d="M300 850h150l-300 -850h-150zM300 250h150v50h-150v100h250v-250h-150v-50h150v-100h-250v250zM50 750h-50v100h150v-400h-100v300z" />
    <glyph glyph-name="onequarter" unicode="&#xbc;" horiz-adv-x="600" 
d="M300 850h150l-300 -850h-150zM300 400h100v-200h50v200h100v-400h-100v100h-150v300zM50 750h-50v100h150v-400h-100v300z" />
    <glyph glyph-name="threequarters" unicode="&#xbe;" horiz-adv-x="700" 
d="M400 850h150l-300 -850h-150zM0 700h150v50h-150v100h250v-400h-250v100h150v50h-150v100zM400 400h100v-200h50v200h100v-400h-100v100h-150v300z" />
    <glyph glyph-name="threesuperior" unicode="&#xb3;" horiz-adv-x="300" 
d="M0 700h150v50h-150v100h250v-400h-250v100h150v50h-150v100z" />
    <glyph glyph-name="twosuperior" unicode="&#xb2;" horiz-adv-x="300" 
d="M0 700h150v50h-150v100h250v-250h-150v-50h150v-100h-250v250z" />
    <glyph glyph-name="onesuperior" unicode="&#xb9;" horiz-adv-x="200" 
d="M50 750h-50v100h150v-400h-100v300z" />
    <glyph glyph-name="uni00DF" unicode="&#xdf;" 
d="M150 -200h-150v1050h350v-850h-200v-200zM150 500h50v200h-50v-200zM200 150v200h-50v-200h50z" />
    <glyph glyph-name="ydieresis" unicode="&#xff;" 
d="M0 650h150v-500h50v500h150v-850h-350v150h200v50h-200v650zM0 800h149l1 -100h-150v100zM200 800h149l1 -100h-150v100z" />
    <glyph glyph-name="Ydieresis" unicode="&#x178;" 
d="M0 850h150v-500h50v500h150v-600h-100v-250h-150v250h-100v600zM200 975h150v-100h-150v100zM0 875v100h150v-100h-150z" />
    <glyph glyph-name="divide" unicode="&#xf7;" horiz-adv-x="600" 
d="M0 400h550v-150h-550v150zM200 650h150v-150h-150v150zM200 150h150v-150h-150v150z" />
    <glyph glyph-name="lozenge" unicode="&#x25ca;" horiz-adv-x="500" 
d="M150 0l-150 250v150l150 250h150l150 -250v-150l-150 -250h-150zM100 300l100 -175h50l100 175v50l-100 175h-50l-100 -175v-50z" />
    <glyph glyph-name="uni2206" unicode="&#x2206;" 
d="M0 150l100 700h150l100 -700v-150h-350v150zM150 150h50l-25 175z" />
    <glyph glyph-name="mu" unicode="&#x3bc;" horiz-adv-x="450" 
d="M0 650h150v-500h50v500h150v-500h50v-150h-250v-200h-150v850z" />
    <glyph glyph-name="florin" horiz-adv-x="300" 
d="M0 400h50v450h200v-150h-50v-300h50v-150h-50v-450h-200v150h50v300h-50v150z" />
    <glyph glyph-name="germandbls" 
d="M150 -200h-150v1050h350v-850h-200v-200zM150 500h50v200h-50v-200zM200 150v200h-50v-200h50z" />
    <glyph glyph-name="fraction" unicode="&#x2215;" horiz-adv-x="500" 
d="M300 850h150l-300 -850h-150z" />
    <glyph glyph-name="Delta" unicode="&#x394;" 
d="M0 150l100 700h150l100 -700v-150h-350v150zM150 150h50l-25 175z" />
    <glyph glyph-name="uni00A0" horiz-adv-x="250" 
 />
    <glyph glyph-name="Eth" unicode="&#xd0;" horiz-adv-x="450" 
d="M0 500h50v350h350v-850h-350v350h-50v150zM250 150v550h-50v-550h50z" />
    <glyph glyph-name="eth" unicode="&#xf0;" 
d="M150 791h50v59h150v-59h50v-141h-50v-650h-350v600h200v50h-50v141zM200 150v300h-50v-300h50z" />
    <glyph glyph-name="Lslash" unicode="&#x141;" horiz-adv-x="450" 
d="M0 550l50 7v293h150v-272l150 22v-150l-150 -22v-278h50v250h150v-400h-350v407l-50 -7v150z" />
    <glyph glyph-name="lslash" unicode="&#x142;" 
d="M0 550l100 14v336h150v-314l100 14v-150l-100 -14v-436h-150v414l-100 -14v150z" />
    <glyph glyph-name="Scaron" unicode="&#x160;" 
d="M200 850h150v-300h-150v150h-50v-200h200v-500h-350v300h150v-150h50v200h-200v500h151l-101 25v100l104 -25h46l100 25v-100z" />
    <glyph glyph-name="scaron" unicode="&#x161;" 
d="M200 650h150v-200h-150v50h-50v-100h200v-400h-350v200h150v-50h50v100h-200v400h151l-101 25v100l104 -25h46l100 25v-100z" />
    <glyph glyph-name="Thorn" unicode="&#xde;" 
d="M0 850h150v-200h200v-450h-200v-200h-150v850zM150 350h50v150h-50v-150z" />
    <glyph glyph-name="thorn" unicode="&#xfe;" 
d="M150 850v-200h200v-650h-200v-200h-150v1050h150zM150 500v-350h50v350h-50z" />
    <glyph glyph-name="Zcaron" unicode="&#x17d;" 
d="M50 875v100l100 -25h46l104 25v-100l-101 -25h151v-500h-200v-200h50v150h150v-300h-350v500h200v200h-50v-150h-150v300h150z" />
    <glyph glyph-name="zcaron" unicode="&#x17e;" 
d="M50 675v100l100 -25h46l104 25v-100l-101 -25h151v-400h-200v-100h50v50h150v-200h-350v400h200v100h-50v-50h-150v200h150z" />
    <glyph glyph-name="apple" horiz-adv-x="550" 
d="M500 600v-150h-100v-50h-50v-150h50v-50h100v-150h-100v-50h-100v50h-100v-50h-100v50h-50v50h-50v450h50v50h50v50h100v-50h100v50h100v-50h100zM200 750h50v50h150v-50h-50v-50h-150v50z" />
    <glyph glyph-name="circumflex" unicode="&#x2c6;" 
d="M200 750h-50l-150 -50v100l150 50h50l150 -50v-100z" />
    <glyph glyph-name="tilde" unicode="&#x2dc;" 
d="M97 749l-97 -49v100l100 50l150 -49l100 49v-100l-100 -50z" />
    <glyph glyph-name="macron" unicode="&#xaf;" 
d="M0 800h350v-100h-350v100z" />
    <glyph glyph-name="macron" unicode="&#x2c9;" 
d="M0 800h350v-100h-350v100z" />
    <glyph glyph-name="breve" unicode="&#x2d8;" 
d="M200 700h-50l-100 50v100l100 -50h50l100 50v-100z" />
    <glyph glyph-name="dotaccent" unicode="&#x2d9;" 
d="M100 800h150v-100h-150v100z" />
    <glyph glyph-name="ring" unicode="&#x2da;" 
d="M100 700v150h150v-150h-150zM200 750v50h-50v-50h50z" />
    <glyph glyph-name="cedilla" unicode="&#xb8;" 
d="M100 -50h50v50h100v-150h-150v100z" />
    <glyph glyph-name="ogonek" unicode="&#x2db;" 
d="M250 -150h-150v150h100v-50h50v-100z" />
    <glyph glyph-name="hungarumlaut" unicode="&#x2dd;" 
d="M200 700l100 100h150l-100 -100h-150zM0 700l100 100h150l-100 -100h-150z" />
    <glyph glyph-name="caron" unicode="&#x2c7;" 
d="M150 650l-100 25v100l100 -25h50l100 25v-100l-100 -25h-50z" />
    <glyph glyph-name="multiply" unicode="&#xd7;" 
d="M0 450l100 100l75 -105l75 105l100 -100l-90 -125l90 -125l-100 -99l-75 104l-75 -105l-100 100l89 125z" />
    <glyph glyph-name="currency" unicode="&#xa4;" horiz-adv-x="500" 
d="M0 150h50v250h-50v150h100v-100h250v100h100v-150h-50v-250h50v-150h-100v100h-250v-100h-100v150zM250 250v50h-50v-50h50z" />
    </font>
</defs>
</svg>
